<?xml version="1.0" encoding="UTF-8"?>
<svg id="Calque_1" xmlns="http://www.w3.org/2000/svg" version="1.1" viewBox="500 260 290 270">
  <defs>
    <style>
      .st0 { fill: #f99202; }
      .st1 { fill: #343131; }
    </style>
  </defs>
  <path class="st1" d="M551.7,359.7s1.3-44.7,70.4-91.6c0,0,39.3-22.9,42.7-11.6,0,0,7.3,11.8,2.9,36.7,0,0-1.8,20.9-31.1,42.9,0,0-20.4,10-33.6,42,0,0-23.1-16.7-51.3-18.4h0Z"/>
  <path class="st1" d="M549.9,373s52.3,3.3,82.5,54.4c0,0,21.8,29.1,21.1,66.9,0,0-55.3.7-87.8-49.8,0,0-20.6-26.3-15.8-71.5h0Z"/>
  <path class="st1" d="M746.9,321.9s59.6,78-20,148.9c0,0-22.8,20.2-57.8,23.4,0,0-16.3-58.1,39.8-95.2,0,0,37.3-20.9,38-77.1Z"/>
  <path class="st0" d="M681.8,266.4c5.5,2.9,11.3,6.3,17.3,10.3,6,3.9,11.4,7.9,16.2,11.7,1.8,1.3,4.2,3.2,6.8,5.8,3,3,6.5,6.4,8.8,11.1,1.3,2.8,2.2,6,2.4,13.2.2,5,.5,15.1-1.9,25.1-5.9,24-26.1,40.9-29.4,43.6,0,0-32.8,18-44.4,60,0,0-.5.6-1.5-.1-1-.8-6.8-30.4-42.9-60,0,0,6.3-25.7,40.3-46.2,0,0,37.1-25.5,28.3-74.6h0Z"/>
</svg>
